<?xml version="1.0" encoding="utf-8"?>
<!-- Generator: Adobe Illustrator 21.0.2, SVG Export Plug-In . SVG Version: 6.00 Build 0)  -->
<svg version="1.1" id="Layer_1" xmlns="http://www.w3.org/2000/svg" xmlns:xlink="http://www.w3.org/1999/xlink" x="0px" y="0px"
	 viewBox="0 0 283.5 283.5" style="enable-background:new 0 0 283.5 283.5;" xml:space="preserve">
<style type="text/css">
	.st0{fill:none;stroke:#F68C24;stroke-width:15;stroke-linecap:round;stroke-linejoin:round;}
	.st1{fill:none;stroke:#F99B22;stroke-width:15;stroke-linecap:round;stroke-linejoin:round;}
	.st2{fill:#F58538;stroke:#F47827;stroke-width:15;stroke-linecap:round;stroke-linejoin:round;}
	.st3{fill:none;stroke:#F26623;stroke-width:15;stroke-linecap:round;stroke-linejoin:round;}
	.st4{fill:#5181C2;stroke:#4775BA;stroke-width:15;stroke-linecap:round;stroke-linejoin:round;}
	.st5{fill:none;stroke:#6492CC;stroke-width:15;stroke-linecap:round;stroke-linejoin:round;}
</style>
<g>
	<path class="st0" d="M148.8,209.5c-18.5,3.1-37.2,7.9-55.5,12.5c-21.2,5.4-44.6,11.7-65.3,19.8c0,0-3,1-0.9,3.3"/>
	<path class="st1" d="M153.2,219.2c-3.7,0.5-15.5,2.3-28.9,5.1c-13.4,2.8-42.7,11.1-54.8,14.4c-12.1,3.3-25.6,8.2-29,9.7
		c-3.1,1.4-9.1,3.7-11.6,0.3"/>
	<path class="st2" d="M149.5,96.7L149.5,96.7c-1.9,12.3-4.1,24-5.1,34.3c-0.9,9.5-1.8,19.3-2.4,28.8c-0.8,11.9-9,62.8,13.5,59.3
		c13.2-2,30.2-32,37.9-43.3c11.5-16.7,30.5-40.2,34.9-60.3C228.4,115.5,181.9,117.9,149.5,96.7z"/>
	<path class="st3" d="M157.7,113.2c-3.3,9.4-4.8,25.8-5.7,36.3c-1.4,15.7-6.8,46.5,4.6,56.5"/>
	<path class="st4" d="M283.5,47.8c-64.8,10.5-130.1-18.4-141.7-37.1L143.2,0v-12.3h153.3v62.3L283.5,47.8z"/>
	<path class="st4" d="M157.9,25l-1.6,7.9c-3.4,13.4-8.9,26.3-11.9,39.8c-3,13.4-0.2,19.3,11.2,27.1c15.4,10.6,34.7,12.7,52.9,14.2
		c12,0.9,32.4,5.4,37.7-7.9c6-15.2,7.3-36.7,12.1-55.3C219,50.4,183,39.2,157.9,25z"/>
	<path class="st5" d="M167,42.5c-4.9,22-11.3,31.5-9.2,45"/>
	<path class="st5" d="M159.9-6.6c-0.2,3.3-4.2,10.3-3.9,13"/>
</g>
</svg>
