<?xml version="1.0" encoding="utf-8"?>
<!-- Generator: Adobe Illustrator 21.0.2, SVG Export Plug-In . SVG Version: 6.00 Build 0)  -->
<svg version="1.1" xmlns="http://www.w3.org/2000/svg" xmlns:xlink="http://www.w3.org/1999/xlink" x="0px" y="0px"
	 viewBox="0 0 200 200" style="enable-background:new 0 0 200 200;" xml:space="preserve">
<style type="text/css">
	.st0{fill:none;stroke:#E52828;stroke-width:2.5;stroke-linecap:round;stroke-linejoin:round;stroke-miterlimit:10;}
	.st1{fill:#FFFFFF;}
	.st2{opacity:0.5;fill:#FFFFFF;stroke:#FFFFFF;stroke-miterlimit:10;}
	.st3{opacity:0.25;fill:#FFFFFF;}
	.st4{opacity:0.64;}
	.st5{clip-path:url(#SVGID_2_);fill:#FFFFFF;}
	.st6{clip-path:url(#SVGID_4_);fill:#FFFFFF;}
	.st7{clip-path:url(#SVGID_6_);fill:#FFFFFF;}
	.st8{opacity:0.46;}
	.st9{clip-path:url(#SVGID_8_);fill:#FFFFFF;}
	.st10{clip-path:url(#SVGID_10_);fill:#FFFFFF;}
	.st11{opacity:0.86;}
	.st12{clip-path:url(#SVGID_12_);fill:#FFFFFF;}
	.st13{fill:#353535;}
	.st14{fill:#2EBF00;stroke:#FFFFFF;stroke-width:2.5;stroke-linecap:round;stroke-linejoin:round;stroke-miterlimit:10;}
	.st15{fill:#E27030;}
	.st16{opacity:0.5;fill:#FFFFFF;}
	.st17{fill:#E5772E;stroke:#AF5625;stroke-width:15;stroke-linecap:round;stroke-linejoin:round;}
	.st18{fill:none;stroke:#E28D5D;stroke-width:15;stroke-linecap:round;stroke-linejoin:round;}
	.st19{fill:#5181C2;stroke:#4775BA;stroke-width:15;stroke-linecap:round;stroke-linejoin:round;}
	.st20{fill:none;stroke:#6492CC;stroke-width:15;stroke-linecap:round;stroke-linejoin:round;}
	.st21{fill:#E5772E;stroke:#AF5625;stroke-width:13;stroke-linecap:round;stroke-linejoin:round;}
	.st22{fill:none;stroke:#E28D5D;stroke-width:13;stroke-linecap:round;stroke-linejoin:round;}
	.st23{fill:#5181C2;stroke:#4775BA;stroke-width:13;stroke-linecap:round;stroke-linejoin:round;}
	.st24{fill:none;stroke:#6492CC;stroke-width:13;stroke-linecap:round;stroke-linejoin:round;}
</style>
<g id="Layer_2">
</g>
<g id="Layer_1">
	<g>
		<path class="st21" d="M65.2,73.6L65.2,73.6c-1.2,7.5-2.5,14.6-3.1,20.8c-0.5,5.8-1.1,11.7-1.5,17.5c-0.5,7.2-5.5,38.1,8.2,36
			c8-1.2,18.3-19.4,23-26.3c7-10.1,18.5-24.4,21.2-36.6C113.1,85,84.9,86.5,65.2,73.6z"/>
		<path class="st22" d="M70.2,83.6c-2,5.7-2.9,15.7-3.5,22c-0.8,9.5-4.5,29.4,0.4,35.3"/>
		<path class="st23" d="M145.9,47.1c-39.3,6.4-78.9-11.2-86-22.5l0.8-6.5l5.5-26.7h102.3l-14.8,53.8L145.9,47.1z"/>
		<path class="st23" d="M69.7,33.2l-1,4.8c-2.1,8.1-5.4,16-7.2,24.1c-1.8,8.1-0.1,11.7,6.8,16.4c9.3,6.4,21,7.7,32.1,8.6
			c7.3,0.5,19.7,3.3,22.9-4.8c3.6-9.2,4.4-22.3,7.3-33.5C106.8,48.6,84.9,41.9,69.7,33.2z"/>
		<path class="st24" d="M73.6,42.1c-3,13.3-6.8,18.5-6.6,27.1"/>
		<path class="st24" d="M72.5-3.8c-0.1,2-5.7,26.2-5.6,27.9"/>
	</g>
</g>
</svg>
