<?xml version="1.0" encoding="utf-8"?>
<!-- Generator: Adobe Illustrator 21.0.2, SVG Export Plug-In . SVG Version: 6.00 Build 0)  -->
<svg version="1.1" xmlns="http://www.w3.org/2000/svg" xmlns:xlink="http://www.w3.org/1999/xlink" x="0px" y="0px"
	 viewBox="0 0 500 500" style="enable-background:new 0 0 500 500;" xml:space="preserve">
<style type="text/css">
</style>

	<path class="undo" d="M401.4,213.9c-6.6-42.6-43.2-66.1-84.3-66.4c-37-0.3-79.6,39.1-83.2,43.8c6-7.9,7.1-19.9-3.2-17.6
			c-10.3,2.2-22.5,10.9-32.2,15.9c-14-8.6-78.7-29.7-53.8,5.9c8.9,12.7,12.8,14.7,5.2,27.3c-5.4,9-16.6,26.6-16.6,26.6
			c-10.1,13.8-18,30.1-25.1,45.6c-2.8,6.1-15,25-9.8,30.3c6.5,6.7,24.7-8.3,30.9-10.9c15.3-6.4,31.2-10.7,47.4-13.9
			c10.5-2.1,13.9-3.6,21.6,2.5c3.3,2.6,5.9,8.1,8.4,11.4c7.4,10.1,16.9,30.6,26.6,36.3c20,11.9,22.1-44.3,25.5-56.5
			c2.9-10.3,6.5-20.7,14.1-28c4.1-3.9,11.8-6.3,15-10.9c10.8-15.8-15.6-14.3-26.7-15.5c1-39,68.8-70.9,99.4-47.4
			c8.2,6.3,16.3,17.8,21,26.9c5.3,10.6,1.4,26.6,6.8,35.9c5.5,9.5,8.8,5,11.8-3.2C404.1,241.5,403.1,225.1,401.4,213.9z
			 M230.7,209.6c39.4-56.2,123.9-77.9,156.8-6.3c-0.1-0.2-26.4-41.3-70.9-38.4c-39.2,2.5-78.2,49.7-87.4,59.6
			C229.9,216.3,229,213.4,230.7,209.6z M192.2,244.3c0.9-8-0.8-22.4-0.8-22.4c6.9-0.9,10.7-4.8,16.7-8.9c5.5-3.7,11.9-10,11.7-5.8
			c-0.5,12.8-1,32.6-1,32.7C211.4,240.8,199.7,243.4,192.2,244.3z M164,190.6c19,3.2,29.2,13.6,47.2,6c0,0-20.5,15.8-23.3,15.9
			C179.5,202.3,164,190.6,164,190.6z M145.3,251.1c9-12.9,21.6-31.7,20.3-44.1c7.4,4.6,10.2,7.6,13,12.3c4.6,7.9,4.1,21.9,3.5,27.3
			c-16.4,5.5-37.3,25-51.1,40.6l0,0c-3.6,4.5-8,8.2-12,12.3C118.9,299.5,128.9,274.8,145.3,251.1z M223.5,318.1
			c-8.5-11.7-16.9-29.7-31.8-31.2c-17.1-1.7-58.3,13.2-58.3,13.2c8.7-9.2,16.7-19.1,26.7-27c6.9-5.4,19.6-16.7,27.8-17.3
			c0.8,6.9,12.7,6.6,19.2,11.6c6.4,5,12.3,22.4,13.6,27.1c2.1,7.4,1.6,14.7,4.6,21.8c1.8,4.2,5.1,11.2,5.1,11.2
			C228.1,324.4,225.8,321.2,223.5,318.1z M256.7,267.7c-8.1,17.4-15.7,55-15.8,55c-1.7-5.3-5.6-9.1-7.5-14.2
			c-2.4-6.7-1.6-14.4-4-21.3c-2.3-6.4-6.1-12.8-9.7-18.6c0,0,26-0.9,38.2-3.6C258.5,265.9,257.4,266.1,256.7,267.7z M264,251.9
			c-21.3,5.7-52.9,7.9-62.5,1.2c7.7-1.5,14.4-2.4,21-3.4C235.4,247.6,246.6,248.9,264,251.9z M250.5,239.4
			c-6.4-0.2-13.5-0.3-17.4,0.1c33.3-51.6,73.1-65.5,91.9-64.4C279.4,187.3,253.6,210.6,250.5,239.4z"/>

	<path class="undo-clear" d="M392.8,234c0,0,7.7-28-11.3-54.7s-67.7-28.3-77.7-26c-10,2.3-45,24.7-57.7,34c-12.7,9.3-23,11.3-23,11.3V188
		c0,0-25.3,7.7-26.7,6.7c-1.3-1-49-12-49-12l12,31l-56,104.3l66-24.7l25.3,1l39.7,46.3l11-15l11.3-49l26-26.7l-28.3-8.7
		c0,0,1.3-32.7,32.3-46c31-13.3,39-18.7,54.3-16.7C356.5,180.7,392.1,206.7,392.8,234z"/>

</svg>
