<?xml version="1.0" encoding="utf-8"?>
<!-- Generator: Adobe Illustrator 21.0.2, SVG Export Plug-In . SVG Version: 6.00 Build 0)  -->
<svg version="1.1" xmlns="http://www.w3.org/2000/svg" xmlns:xlink="http://www.w3.org/1999/xlink" x="0px" y="0px"
	 viewBox="0 0 200 200" style="enable-background:new 0 0 200 200;" xml:space="preserve">
<style type="text/css">
	.st0{fill:none;stroke:#E52828;stroke-width:2.5;stroke-linecap:round;stroke-linejoin:round;stroke-miterlimit:10;}
	.st1{fill:#FFFFFF;}
	.st2{opacity:0.5;fill:#FFFFFF;stroke:#FFFFFF;stroke-miterlimit:10;}
	.st3{opacity:0.25;fill:#FFFFFF;}
	.st4{opacity:0.64;}
	.st5{clip-path:url(#SVGID_2_);fill:#FFFFFF;}
	.st6{clip-path:url(#SVGID_4_);fill:#FFFFFF;}
	.st7{clip-path:url(#SVGID_6_);fill:#FFFFFF;}
	.st8{opacity:0.46;}
	.st9{clip-path:url(#SVGID_8_);fill:#FFFFFF;}
	.st10{clip-path:url(#SVGID_10_);fill:#FFFFFF;}
	.st11{opacity:0.86;}
	.st12{clip-path:url(#SVGID_12_);fill:#FFFFFF;}
	.st13{fill:#353535;}
	.st14{fill:#2EBF00;stroke:#FFFFFF;stroke-width:2.5;stroke-linecap:round;stroke-linejoin:round;stroke-miterlimit:10;}
	.st15{fill:#E27030;}
	.st16{opacity:0.5;fill:#FFFFFF;}
	.st17{fill:#E5772E;stroke:#AF5625;stroke-width:15;stroke-linecap:round;stroke-linejoin:round;}
	.st18{fill:none;stroke:#E28D5D;stroke-width:15;stroke-linecap:round;stroke-linejoin:round;}
	.st19{fill:#5181C2;stroke:#4775BA;stroke-width:15;stroke-linecap:round;stroke-linejoin:round;}
	.st20{fill:none;stroke:#6492CC;stroke-width:15;stroke-linecap:round;stroke-linejoin:round;}
	.st21{fill:#E5772E;stroke:#AF5625;stroke-width:13;stroke-linecap:round;stroke-linejoin:round;}
	.st22{fill:none;stroke:#E28D5D;stroke-width:13;stroke-linecap:round;stroke-linejoin:round;}
	.st23{fill:#5181C2;stroke:#4775BA;stroke-width:13;stroke-linecap:round;stroke-linejoin:round;}
	.st24{fill:none;stroke:#6492CC;stroke-width:13;stroke-linecap:round;stroke-linejoin:round;}
</style>
<g id="Layer_2">
</g>
<g id="Layer_1">
	<g>
		<path class="st1" d="M185.8,79.6c-3.7-24.1-24.5-37.4-47.8-37.6C117,41.7,93,64,90.9,66.7c3.4-4.5,4-11.3-1.8-10
			c-5.8,1.3-12.7,6.2-18.2,9c-7.9-4.9-44.6-16.9-30.5,3.4c5,7.2,7.3,8.3,3,15.5c-3.1,5.1-9.4,15-9.4,15c-5.7,7.8-10.2,17-14.2,25.8
			c-1.6,3.5-8.5,14.1-5.6,17.2c3.7,3.8,14-4.7,17.5-6.2c8.7-3.6,17.7-6,26.9-7.9c5.9-1.2,7.9-2,12.2,1.4c1.9,1.5,3.3,4.6,4.7,6.5
			c4.2,5.7,9.6,17.3,15,20.6c11.3,6.8,12.5-25.1,14.5-32c1.6-5.8,3.7-11.7,8-15.9c2.3-2.2,6.7-3.6,8.5-6.2c6.1-8.9-8.8-8.1-15.1-8.8
			c0.6-22.1,39-40.2,56.3-26.9c4.6,3.6,9.3,10.1,11.9,15.3c3,6,0.8,15.1,3.8,20.4c3.1,5.4,5,2.8,6.7-1.8
			C187.3,95.2,186.8,85.9,185.8,79.6z M89.1,77.1c22.3-31.8,70.2-44.1,88.8-3.5c0-0.1-15-23.4-40.2-21.8
			c-22.2,1.4-44.3,28.2-49.5,33.8C88.6,80.9,88.1,79.3,89.1,77.1z M67.3,96.7c0.5-4.6-0.5-12.7-0.5-12.7c3.9-0.5,6-2.7,9.4-5.1
			c3.1-2.1,6.7-5.7,6.6-3.3c-0.3,7.3-0.6,18.5-0.6,18.5C78.2,94.8,71.5,96.3,67.3,96.7z M51.3,66.4C62,68.2,67.8,74,78,69.8
			c0,0-11.6,8.9-13.2,9C60,73,51.3,66.4,51.3,66.4z M40.7,100.6c5.1-7.3,12.2-18,11.5-25c4.2,2.6,5.8,4.3,7.3,7
			c2.6,4.5,2.3,12.4,2,15.4c-9.3,3.1-21.1,14.1-28.9,23l0,0c-2,2.6-4.5,4.7-6.8,7C25.7,128.1,31.4,114,40.7,100.6z M85,138.6
			c-4.8-6.6-9.6-16.8-18-17.7c-9.7-1-33,7.5-33,7.5c4.9-5.2,9.5-10.8,15.2-15.3c3.9-3.1,11.1-9.4,15.7-9.8c0.5,3.9,7.2,3.7,10.9,6.6
			c3.6,2.8,7,12.7,7.7,15.3c1.2,4.2,0.9,8.3,2.6,12.4c1,2.4,2.9,6.4,2.9,6.4C87.6,142.2,86.3,140.4,85,138.6z M103.8,110
			c-4.6,9.9-8.9,31.1-8.9,31.2c-1-3-3.2-5.1-4.3-8.1c-1.4-3.8-0.9-8.2-2.3-12.1c-1.3-3.6-3.5-7.3-5.5-10.5c0,0,14.7-0.5,21.6-2
			C104.8,109,104.2,109.1,103.8,110z M107.9,101.1c-12,3.3-30,4.5-35.4,0.7c4.4-0.9,8.2-1.4,11.9-1.9
			C91.7,98.7,98.1,99.4,107.9,101.1z M100.3,94c-3.6-0.1-7.6-0.2-9.9,0.1c18.9-29.3,41.4-37.1,52.1-36.5
			C116.6,64.5,102,77.7,100.3,94z"/>
	</g>
	<path class="st16" d="M181.5,92.8c0,0,4.3-15.9-6.4-31s-38.3-16.1-44-14.7c-5.7,1.3-25.5,14-32.7,19.3s-13,6.4-13,6.4v-6
		c0,0-14.4,4.3-15.1,3.8c-0.8-0.6-27.8-6.8-27.8-6.8l6.8,17.6l-31.7,59.1l37.4-14l14.4,0.6l22.5,26.3l6.2-8.5l6.4-27.8l14.7-15.1
		L103.2,97c0,0,0.8-18.5,18.3-26.1c17.6-7.6,22.1-10.6,30.8-9.4C161,62.6,181.2,77.4,181.5,92.8z"/>
</g>
</svg>
