<?xml version="1.0" encoding="utf-8"?>
<!-- Generator: Adobe Illustrator 21.0.2, SVG Export Plug-In . SVG Version: 6.00 Build 0)  -->
<svg version="1.1" xmlns="http://www.w3.org/2000/svg" xmlns:xlink="http://www.w3.org/1999/xlink" x="0px" y="0px"
	 viewBox="0 0 500 500" style="enable-background:new 0 0 500 500;" xml:space="preserve">
<style type="text/css">
	.st0{fill:none;stroke:#E52828;stroke-width:2.5;stroke-linecap:round;stroke-linejoin:round;stroke-miterlimit:10;}
	.st1{fill:#FFFFFF;}
	.st2{opacity:0.5;fill:#FFFFFF;stroke:#FFFFFF;stroke-miterlimit:10;}
	.st3{opacity:0.25;fill:#FFFFFF;}
	.st4{opacity:0.64;}
	.st5{clip-path:url(#SVGID_2_);fill:#FFFFFF;}
	.st6{clip-path:url(#SVGID_4_);fill:#FFFFFF;}
	.st7{clip-path:url(#SVGID_6_);fill:#FFFFFF;}
	.st8{opacity:0.46;}
	.st9{clip-path:url(#SVGID_8_);fill:#FFFFFF;}
	.st10{clip-path:url(#SVGID_10_);fill:#FFFFFF;}
	.st11{opacity:0.86;}
	.st12{clip-path:url(#SVGID_12_);fill:#FFFFFF;}
	.st13{fill:#353535;}
	.st14{fill:#2EBF00;stroke:#FFFFFF;stroke-width:2.5;stroke-linecap:round;stroke-linejoin:round;stroke-miterlimit:10;}
	.st15{fill:#E27030;}
	.st16{opacity:0.5;fill:#FFFFFF;}
	.st17{fill:#E5772E;stroke:#AF5625;stroke-width:15;stroke-linecap:round;stroke-linejoin:round;}
	.st18{fill:none;stroke:#E28D5D;stroke-width:15;stroke-linecap:round;stroke-linejoin:round;}
	.st19{fill:#5181C2;stroke:#4775BA;stroke-width:15;stroke-linecap:round;stroke-linejoin:round;}
	.st20{fill:none;stroke:#6492CC;stroke-width:15;stroke-linecap:round;stroke-linejoin:round;}
</style>
<g id="Layer_2">
</g>
<g id="Layer_1">
	<polygon class="st3" points="300,215 253.5,197 158.6,234.5 150,275.1 150,317 137,333 131.5,394.5 142,406.6 144.5,431 137.5,450 
		181.5,488.5 221.5,468.5 225.4,481 226.3,500 361,500 367,406.6 369.5,346.3 351,317.5 	"/>
	<path class="st15" d="M195.5,252.6c-3.6,1.8-5.4,4.5-5.9,4.4c-4.8-0.6-25-34.3-32.9-50.3s-51.2-65.2-52.6-68.6
		c-1.4-3.4,25.1-27.4,27.5-21.1c5.7,14.9,29.2,16.4,44.6,16.6s14.1-9.3,19.7-9.3s3.3,4.8,12,14.1c8.6,9.3,43.4,14.9,58,15.7
		s13.2-5.3,20-7c6.7-1.7,21.1,3.1,34.3,3.7c13.2,0.6,19.9-9.5,30.3-17.6s8.1-23.8,8.1-23.8s35.4,38,37.4,40.3s-33.2,16-46.7,21.9
		c-7.4,3.3-53.7,29.1-94.6,51.5H253c0,0-6.1-16.1-9.4-21.2c-3.3-5.1-15-4.4-24.6-3.2c-9.6,1.1-16.2,5.2-19,14.5
		c-2.8,9.3-4.2,37.6-4.2,37.6L195.5,252.6z"/>
	<g>
		<path class="st1" d="M400.2,145.1c-1.7-1.9-25.5-27.5-34.3-36.9c1.4-7.4,1.7-15.1,0.3-21.6c-1.4-6.1-13.2-29.9-22.5-20.7
			c0,0,0,0,0,0.1c-2.8,2.8-2.5,7.7,0.6,10.1c0.5,0.3,0.9,0.6,1.3,1c3.2,3.5,5.7,7.6,7.4,12c5.5,26.3-15.1,52.6-41.5,54.3
			c-9.8-0.4-26.3-8.1-34.6,0.2c-0.5,0.2-1.1,0.4-1.6,0.6c-19,4.5-50-1.2-64.1-14.3c-6.1-6.7-7.1-14.7-17.7-11.7
			c-7.1,2-12.4,6.9-20.1,7.4c-12.2-0.6-26.2-2.9-35.5-11.4c-7.9-8.5-11.7-20.1-20.4-27.5c-0.7-0.8-1.4-1.6-1.9-2.5
			c-2.3-4.4-4.1-10.5-4-14c0-3.5,1.8-8.5,3.7-12c1-1.5,2.1-2.9,3.3-4.2c6.4-6,15-10,23.4-12.3c7.1-1.9,16.5-1.2,18.2-10.4
			c0.4-1.1,0.9-2.2,1.6-3.6c0.8-1.3,1.8-2.5,3.1-3.9c1.7-1.6,3.4-2.9,5-3.9c6-3.2,12.3-4.7,19-5c12.4,0.5,25.4,3,36.4,8.6
			c5.7,2.9,13.2,10.2,20.1,9.2c5.6-0.8,9.8-6.7,14.4-9.5c1.8-0.9,7.3-3.3,7.7-3.4c1.2-0.3,2.4-0.4,3.6-0.5c19,0.5,47.5,9.6,55,29.4
			c1.1,5.3-0.3,13.1,6.3,14.9c5.1,1.4,7.6-2.9,8.2-7.2c1.9-12.9-8.6-24.7-17.7-32.1C301.3,6.6,265.3-3,243.5,18.8
			C223.5,8.6,204.6-1,181,2.1c-13.8,1.8-29.2,10.6-33.5,24.7c-17.2,2.8-37.2,10.7-45.4,27.2C95.2,68,97.5,90.2,111.7,99
			c2.3,5.1,5.2,9.8,8.6,14.2c-8,5-16.4,13.7-18.8,16.8c-1.4,1.8-4.3,5.5-2.6,9.4c0.7,1.7,2.3,3.8,13.6,17.4
			c12.8,15.5,34.2,41.5,39.2,51.5c0.1,0.2,4.3,8.5,10,18.4c-3,1.7-5.3,3.6-6.9,6c-3.6,5.2-6.9,28.5-8.5,42.3
			c-0.2,5.1-1,26.8-0.7,38.1c-2.2,1.4-4.4,2.9-6.3,4.7c-6.8,6.6-7.7,22.1-7.7,37.8c0,1.1,0,2.1,0,2.7l0,1.9c-0.1,4.7-0.2,9.6-1.1,15
			c-0.2,1-0.4,2.1-0.6,3.2c-1.4,7-3.1,15.7,2,22.3c0.9,1.2,2.1,2.3,3.4,3.3c-0.8,6.4,2.3,14.4,6.8,21.6c-4.8,4.3-11.3,12-9.7,22.6
			c1.5,9.9,8.6,14.8,15.5,19.5c2.9,2,6,4.1,8.8,6.7l3.1,2.9c9.2,8.5,16.5,15.2,24.6,15.5c0.1,0,0.2,0,0.3,0
			c5.6,0,14.9-5.1,28.3-12.7c2.2-1.3,4.4-2.5,6.2-3.5c0.7,1.2,1.3,2.5,1.4,3.7c0.9,7.6,0.7,13.8,0.7,13.8c-0.1,3.1,2.1,5.7,5.2,5.8
			c0.1,0,0.1,0,0.2,0c3,0,5.8-2.4,5.9-5.4c0-0.3,0.2-7-0.8-15.5c-0.8-6.9-5.2-11.9-9.4-16.7c-2.2-2.5-4.4-5-6.3-7.9
			c-1.5-2.3-2.9-4.6-4.3-6.9c0,0,0,0,0,0c-4-6.7-7.4-13.3-10.3-21.9c-3.7-11-3.4-29.2-2.7-34.6c0.7-5,4.6-21.5,6.4-28.5
			c1.1-4.5,1.2-9.9,1.3-15.2c0.1-3.5,0.1-6.8,0.5-9.6c0.9-7.3,1.5-21.6,0.9-27.8l0-0.5c-0.6-5.8-1.5-14.6-2.9-19.5
			c-0.7-2.2-1.4-7.9-2-12.5c-0.5-3.7-0.9-6.9-1.3-9c-0.7-3.4-0.4-11.4-0.2-17.3l0.1-3.1c0-1.2,0.1-2.6,0.3-4.2
			c5.7,7.8,14.1,9.4,21.7,9.4c0.7,0,1.4,0,2.1,0c12.5-0.4,21.1-1.7,26.2-15.1c0.8,2.7,1.3,5,1.4,6.4c0.5,5.1,0,9.9,0,9.9
			c0,0.2,0,0.4,0,0.6c0,5.3,0.9,35.7,2.5,44.5c0.2,1.2,0.4,2.4,0.6,3.7c1.2,7.4,2.8,16.6,10.1,31.7c8.3,16.9,19.9,38.2,20,38.4
			c1.5,2.7,4.9,3.7,7.6,2.2c2.7-1.5,3.7-4.9,2.2-7.6c-0.1-0.2-7.1-12.9-14-26.4c5.9-1.3,13.9-3.8,17.7-8.1c2-2.4,1.8-5.9-0.6-7.9
			c-2.4-2-5.9-1.8-7.9,0.6c-1.5,1.8-8.3,3.9-14.4,5.1c-0.2-0.4-0.4-0.8-0.6-1.1c-6.6-13.6-8-21.6-9.2-28.6c-0.2-1.4-0.4-2.7-0.7-3.9
			c-0.7-3.5-1.2-12-1.6-20.7c0.7,0.1,1.4,0.2,2.1,0.2c1.5,0,2.9-0.3,4.5-0.7c0.6-0.2,1.2-0.3,1.9-0.5c3.1-0.6,5.1-3.5,4.5-6.5
			c-0.6-3.1-3.5-5.1-6.5-4.5c-1.2,0.2-2.2,0.5-3,0.7c-1.1,0.3-1.8,0.5-4-0.3c-0.1-4.2-0.2-7.8-0.2-9.8c0.1-1.3,0.5-6.3,0-11.9
			c-0.4-3.7-2.2-10.4-4.7-17.7c9.2-5.1,18.7-10.3,27.9-15.3c9.5,8.9,22.5,34.8,30.7,51.3c5.6,11.1,10.3,20.7,13.9,25.7
			c4.9,6.8,9.1,16.9,13.2,26.6c4.2,10.2,8.2,19.7,13,25.6c7.5,9.1,7.5,9.3,7.7,20.9c0.2,10.7-1.4,29.6-4.8,56.1
			c-3,23.2-5.6,75.2-5.7,77.1c-0.2,3.1,2.2,5.7,5.3,5.9c0.1,0,0.2,0,0.3,0c3,0,5.5-2.3,5.6-5.3c0-0.5,2.7-53.5,5.6-76.2
			c3.5-27.1,5.2-46.6,4.9-57.8c-0.3-13.3-0.6-16.1-10.3-27.8c-3.8-4.6-7.4-13.4-11.3-22.8c-4.3-10.3-8.7-21-14.4-28.9
			c-3.1-4.3-7.9-14-13-24.2c-12.9-25.9-20.6-44.2-30.2-52.2c25.9-14.3,48.8-26.8,53.5-28.9c3-1.3,7.2-3.1,11.8-5
			c34-14.2,37.2-16.3,38.2-20.5C401.9,148.6,401.4,146.4,400.2,145.1z M163.9,239.1c0.7-0.9,1.8-1.8,3.4-2.7
			c7.7,12.6,16.4,24.7,21.6,25.4c0.3,0,0.5,0.1,0.8,0.1c0,0,0.1,0,0.2,0c0,3.5,0.2,6.6,0.7,9c0.3,1.7,0.7,4.8,1.2,8.2
			c0.5,3.8,1,7.7,1.5,10.8c-0.4,0.4-0.8,0.8-1,1.3c-0.1,0.1-7.3,14.1-14.2,21.8c-4.5,4.9-17.5,4.9-21.2,3.2c0-0.4-0.1-0.8-0.1-1.3
			c1.2,0.3,2.4,0.5,3.6,0.5c0.1,0,0.1,0,0.2,0c6,0,10.6-5.5,11.2-13.5c0-0.2,1.1-17.4-2.1-27.3c-2.1-6.5-6.8-10.4-10.4-12.4
			C160.8,251.1,162.7,241.2,163.9,239.1z M183.9,421.3c1.6,0,3.2-0.2,4.7-0.4c0.5,2.9,1.2,5.8,2.1,8.4c2.1,6.2,4.4,11.5,7,16.4
			c-18.5-0.4-34.9-11.5-41.6-19.4c-0.5-0.7-1.1-1.3-1.6-2c-3.9-5.1-6.2-9.6-7.3-13.1c2.3,1,4.1,1.7,4.9,1.9
			C157.4,415.4,172.2,421.3,183.9,421.3z M159.2,403.9c0.4-0.3,0.9-0.6,1.9-0.9c2.4-0.7,8.9-0.8,26,2.6c0.1,1.4,0.1,2.9,0.2,4.3
			C183,411.1,171,408.6,159.2,403.9z M187.7,324.4c-1-1.2-2.4-1.8-3.8-1.9c0.9-0.7,1.7-1.4,2.4-2.2c3.5-3.9,7-9,9.8-13.5
			c0.2,1.4,0.3,2.7,0.4,3.8l0.1,0.5c0.3,3.2,0.2,9.8-0.1,16.1c-1.8,1.5-3.2,3.1-3.4,3.3c0,0,0,0,0,0.1
			C191.7,329,190,327.1,187.7,324.4z M157.3,276c0-0.3,0.1-0.6,0.1-0.9c0.6,0.8,1.1,1.7,1.4,2.8c1.9,6,1.9,18.4,1.6,23.1
			c-0.1,1.3-0.4,2.4-0.7,2.9c-0.9-0.2-2-0.6-2.8-0.9c-0.1,0-0.2,0-0.3-0.1C156.7,294.4,157,284,157.3,276z M140.5,394
			c-2-2.6-0.8-8.5,0.1-13.2c0.2-1.2,0.5-2.4,0.7-3.5c1.1-6.3,1.2-11.5,1.3-16.6l0-1.9c0-0.7,0-1.8,0-3c0-21.1,2.4-27.9,4.3-29.8
			c0.6-0.6,1.3-1.2,2-1.7c1.3,1.1,3.2,2.1,5.7,2.8c2.5,0.7,5.7,1.1,9.1,1.1c4.8,0,9.9-0.8,14.5-2.7c-1,2-0.7,4.4,0.8,6.2
			c2.7,3.2,5.8,6.7,7.3,8.5c0,4.2-0.4,15.6-1.8,20.2c-1.3,4-3.1,8.1-4.2,10.3c-2.9-1.4-5.7-2.8-8-4.4c-2.6-1.7-6.1-1-7.8,1.6
			c-1.7,2.6-1,6.1,1.6,7.8c3,2,6.2,3.6,9.4,5.1c5.1,2.6,10,5,12.1,8.4c0,0.1,0,0.3-0.1,0.4c-0.1,1-0.3,2.5-0.4,4.4
			c-11.1-2.1-22.6-3.8-29.1-1.9c-4.9,1.4-7.8,4.3-9.2,7.3C145.2,397.7,141.8,395.7,140.5,394z M198.6,456.9c1.8,0,3.6-0.1,5.4-0.3
			c0.8,1.3,1.6,2.6,2.5,3.9c1.7,2.7,3.6,5,5.5,7.2c-1.4,0.8-3,1.7-4.8,2.7c-6.3,3.6-19.3,11.1-22.6,11.3
			c-3.9-0.1-10.7-6.4-17.3-12.5l-3.2-2.9c-3.4-3.1-6.9-5.5-10.1-7.6c-6.5-4.5-10-7-10.7-11.9c-0.7-4.6,2-8.5,5.4-11.9
			C157.8,444.8,176.8,456.9,198.6,456.9z M241.3,233.9C241.3,233.9,241.3,233.9,241.3,233.9c-2.7,7.2-4.9,7.9-16.2,8.2
			c-10,0.4-14-1.9-16.6-9.3c-1.2-3.5-1.1-13.7,0.2-16.1c0.8-1.4,4-6.2,13-6.3c2,0,3.8-0.2,5.5-0.3c1.5-0.1,2.8-0.2,3.9-0.2
			c3.6,0,5.5,1.1,9,5.9C244.9,222.6,243.5,227.8,241.3,233.9z M359,160.5c-4.7,1.9-8.9,3.7-12,5.1c-5.8,2.5-32.3,17.2-63.1,34.1
			c-8.2,4.5-19.6,10.8-28.6,15.7c-0.8-1.7-1.5-3.5-2.3-5.1c0,0-2.5-4.8-7.1-10c-4.6-5.2-15.1-4.5-22.8-3.8l-0.6,0.1
			c-6.7,0.6-25.3,2.7-28,18.5c-2.7,15.9-3.7,18.9-4.4,32.7l0,1.7c-5.9-6.6-20.6-30.3-28.4-46.2c-5.5-11.2-25.8-35.8-40.6-53.8
			c-4.1-5-8.4-10.2-10.6-13c2.9-3.6,11.5-11.4,17.1-15.3c18,17,44.3,23.4,68.4,10.6c9,15,26.3,21,42.6,23.8
			c13.3,2.3,36.2,7.6,47.5-2.5c16.3,1.2,29.2,5.7,45.2-1.3c12.9-5.6,23.7-15.2,29.7-28.1c0.4-1,0.9-2,1.3-3.1
			c8.3,8.9,20.1,21.5,25.3,27.2C380.6,151.5,367.1,157.1,359,160.5z"/>
		<path class="st1" d="M243.4,282.3c-0.8,0-20.2-0.4-28.1,0c-3.1,0.1-5.5,2.8-5.3,5.9c0.1,3,2.6,5.4,5.6,5.4c0.1,0,0.2,0,0.3,0
			c7.6-0.4,27.2,0,27.4,0c3.2,0.1,5.7-2.4,5.7-5.5C248.9,284.9,246.5,282.4,243.4,282.3z"/>
		<path class="st1" d="M236.4,296.9c0,0-4.3,0.9-9.1,0.8c-3-0.2-5.7,2.3-5.8,5.4c-0.1,3.1,2.3,5.7,5.4,5.8c0.5,0,1,0,1.5,0
			c5.6,0,10.3-1.1,10.5-1.1c3-0.7,4.9-3.7,4.2-6.7C242.4,298.1,239.4,296.2,236.4,296.9z"/>
	</g>
	<path class="st2" d="M241.3,233.9C241.3,233.9,241.3,233.9,241.3,233.9c-2.7,7.2-4.9,7.9-16.2,8.2c-10,0.4-14-1.9-16.6-9.3
		c-1.2-3.5-1.1-13.7,0.2-16.1c0.8-1.4,4-6.2,13-6.3c2,0,3.8-0.2,5.5-0.3c1.5-0.1,2.8-0.2,3.9-0.2c3.6,0,5.5,1.1,9,5.9
		C244.9,222.6,243.5,227.8,241.3,233.9z"/>
	<path class="st2" d="M158.9,277.9c1.9,6,1.9,18.4,1.6,23.1c-0.1,1.3-0.4,2.4-0.7,2.9c-0.9-0.2-2-0.6-2.8-0.9c-0.1,0-0.2,0-0.3-0.1
		c0.1-8.4,0.4-18.9,0.7-26.9c0-0.3,0.1-0.6,0.1-0.9C158,275.9,158.5,276.8,158.9,277.9z"/>
	<path class="st2" d="M186.5,405.7c0.1,1.4,0.1,2.9,0.2,4.3c-4.3,1.3-16.3-1.2-28.1-6c0.4-0.3,0.9-0.6,1.9-0.9
		C163,402.5,169.5,402.4,186.5,405.7z"/>
	<path class="st16" d="M244.3,25.7l-24-11.6l-43.5-3.9l-22.1,12l-4.5,11.1l-35.2,14.1l-8.6,22.5l9.2,26.4l20.8,23.4l31.3,12.4
		l29.4-7.9l13.9,11.2l35.8,15.6l38.2-4.9l34.9,2.8l33.9-25.1l7.7-32.6l-11.8-20.6c0,0-2.3-1.8-9.6-6.7c-7.3-4.9-7.5-12.3-7.5-12.3
		l-11.2-24l-41.1-14.8l-26.6,5.4L244.3,25.7z"/>
</g>
</svg>
