<?xml version="1.0" encoding="utf-8"?>
<!-- Generator: Adobe Illustrator 21.0.2, SVG Export Plug-In . SVG Version: 6.00 Build 0)  -->
<svg version="1.1" xmlns="http://www.w3.org/2000/svg" xmlns:xlink="http://www.w3.org/1999/xlink" x="0px" y="0px"
	 viewBox="0 0 200 200" style="enable-background:new 0 0 200 200;" xml:space="preserve">
<style type="text/css">
	.st0{fill:none;stroke:#E52828;stroke-width:2.5;stroke-linecap:round;stroke-linejoin:round;stroke-miterlimit:10;}
	.st1{fill:#FFFFFF;}
	.st2{opacity:0.5;fill:#FFFFFF;stroke:#FFFFFF;stroke-miterlimit:10;}
	.st3{opacity:0.25;fill:#FFFFFF;}
	.st4{opacity:0.64;}
	.st5{clip-path:url(#SVGID_2_);fill:#FFFFFF;}
	.st6{clip-path:url(#SVGID_4_);fill:#FFFFFF;}
	.st7{clip-path:url(#SVGID_6_);fill:#FFFFFF;}
	.st8{opacity:0.46;}
	.st9{clip-path:url(#SVGID_8_);fill:#FFFFFF;}
	.st10{clip-path:url(#SVGID_10_);fill:#FFFFFF;}
	.st11{opacity:0.86;}
	.st12{clip-path:url(#SVGID_12_);fill:#FFFFFF;}
	.st13{fill:#353535;}
	.st14{fill:#2EBF00;stroke:#FFFFFF;stroke-width:2.5;stroke-linecap:round;stroke-linejoin:round;stroke-miterlimit:10;}
	.st15{fill:#E27030;}
	.st16{opacity:0.5;fill:#FFFFFF;}
	.st17{fill:#E5772E;stroke:#AF5625;stroke-width:15;stroke-linecap:round;stroke-linejoin:round;}
	.st18{fill:none;stroke:#E28D5D;stroke-width:15;stroke-linecap:round;stroke-linejoin:round;}
	.st19{fill:#5181C2;stroke:#4775BA;stroke-width:15;stroke-linecap:round;stroke-linejoin:round;}
	.st20{fill:none;stroke:#6492CC;stroke-width:15;stroke-linecap:round;stroke-linejoin:round;}
	.st21{fill:#E5772E;stroke:#AF5625;stroke-width:13;stroke-linecap:round;stroke-linejoin:round;}
	.st22{fill:none;stroke:#E28D5D;stroke-width:13;stroke-linecap:round;stroke-linejoin:round;}
	.st23{fill:#5181C2;stroke:#4775BA;stroke-width:13;stroke-linecap:round;stroke-linejoin:round;}
	.st24{fill:none;stroke:#6492CC;stroke-width:13;stroke-linecap:round;stroke-linejoin:round;}
</style>
<g id="Layer_2">
</g>
<g id="Layer_1">
	<polygon class="st3" points="114.8,88.4 96.6,81.4 59.4,96.1 56,112 56,128.4 50.9,134.7 48.7,158.8 52.9,163.5 53.8,173.1 
		51.1,180.6 68.4,195.7 84,187.8 85.6,192.7 85.9,200.2 138.8,200.2 141.1,163.5 142.1,139.9 134.8,128.6 	"/>
	<path class="st15" d="M73.8,103.2c-1.4,0.7-2.1,1.8-2.3,1.7c-1.9-0.2-9.8-13.4-12.9-19.7C55.5,78.9,38.5,59.6,38,58.3
		C37.4,57,47.8,47.5,48.8,50c2.2,5.8,11.4,6.4,17.5,6.5c6.1,0.1,5.5-3.6,7.7-3.6c2.2,0,1.3,1.9,4.7,5.5c3.4,3.6,17,5.8,22.7,6.2
		c5.7,0.3,5.2-2.1,7.8-2.8s8.3,1.2,13.5,1.4c5.2,0.2,7.8-3.7,11.9-6.9c4.1-3.2,3.2-9.3,3.2-9.3s13.9,14.9,14.7,15.8
		c0.8,0.9-13,6.3-18.3,8.6c-2.9,1.3-21.1,11.4-37.1,20.2h-0.6c0,0-2.4-6.3-3.7-8.3s-5.9-1.7-9.6-1.3c-3.7,0.4-6.3,2-7.4,5.7
		c-1.1,3.6-1.7,14.8-1.7,14.8L73.8,103.2z"/>
	<g>
		<path class="st1" d="M154.1,61c-0.7-0.7-10-10.8-13.5-14.5c0.5-2.9,0.7-5.9,0.1-8.5c-0.5-2.4-5.2-11.7-8.8-8.1c0,0,0,0,0,0
			c-1.1,1.1-1,3,0.2,3.9c0.2,0.1,0.4,0.2,0.5,0.4c1.3,1.4,2.2,3,2.9,4.7c2.1,10.3-5.9,20.6-16.3,21.3c-3.9-0.2-10.3-3.2-13.6,0.1
			c-0.2,0.1-0.4,0.2-0.6,0.2C97.7,62.4,85.5,60.2,80,55c-2.4-2.6-2.8-5.8-6.9-4.6c-2.8,0.8-4.8,2.7-7.9,2.9
			c-4.8-0.2-10.3-1.1-13.9-4.5c-3.1-3.3-4.6-7.9-8-10.8c-0.3-0.3-0.5-0.6-0.8-1c-0.9-1.7-1.6-4.1-1.6-5.5c0-1.4,0.7-3.3,1.4-4.7
			c0.4-0.6,0.8-1.1,1.3-1.7c2.5-2.3,5.9-3.9,9.2-4.8c2.8-0.7,6.5-0.5,7.2-4.1c0.1-0.4,0.3-0.9,0.6-1.4c0.3-0.5,0.7-1,1.2-1.5
			c0.7-0.6,1.3-1.1,2-1.5c2.3-1.3,4.8-1.8,7.4-1.9c4.9,0.2,10,1.2,14.3,3.4c2.2,1.1,5.2,4,7.9,3.6c2.2-0.3,3.8-2.6,5.6-3.7
			c0.7-0.4,2.9-1.3,3-1.3c0.5-0.1,0.9-0.2,1.4-0.2c7.4,0.2,18.6,3.7,21.6,11.5c0.4,2.1-0.1,5.1,2.5,5.8c2,0.5,3-1.1,3.2-2.8
			c0.7-5.1-3.4-9.7-6.9-12.6c-8.4-6.9-22.6-10.7-31.1-2.1c-7.8-4-15.3-7.8-24.5-6.6C62.7,5.7,56.7,9.1,55,14.6
			c-6.7,1.1-14.6,4.2-17.8,10.7c-2.7,5.4-1.8,14.1,3.8,17.6c0.9,2,2,3.9,3.4,5.6c-3.1,2-6.4,5.4-7.4,6.6c-0.5,0.7-1.7,2.1-1,3.7
			c0.3,0.7,0.9,1.5,5.3,6.8c5,6.1,13.4,16.3,15.4,20.2c0,0.1,1.7,3.3,3.9,7.2c-1.2,0.7-2.1,1.4-2.7,2.3c-1.4,2.1-2.7,11.2-3.3,16.6
			c-0.1,2-0.4,10.5-0.3,15c-0.9,0.5-1.7,1.1-2.5,1.9c-2.7,2.6-3,8.7-3,14.8c0,0.4,0,0.8,0,1.1l0,0.8c0,1.8-0.1,3.7-0.4,5.9
			c-0.1,0.4-0.2,0.8-0.2,1.2c-0.5,2.7-1.2,6.1,0.8,8.7c0.4,0.5,0.8,0.9,1.3,1.3c-0.3,2.5,0.9,5.6,2.7,8.5c-1.9,1.7-4.4,4.7-3.8,8.9
			c0.6,3.9,3.4,5.8,6.1,7.6c1.2,0.8,2.4,1.6,3.5,2.6l1.2,1.1c3.6,3.3,6.5,6,9.7,6.1c0,0,0.1,0,0.1,0c2.2,0,5.8-2,11.1-5
			c0.9-0.5,1.7-1,2.4-1.4c0.3,0.5,0.5,1,0.5,1.5c0.3,3,0.3,5.4,0.3,5.4c0,1.2,0.8,2.2,2,2.3c0,0,0,0,0.1,0c1.2,0,2.3-0.9,2.3-2.1
			c0-0.1,0.1-2.7-0.3-6.1c-0.3-2.7-2-4.7-3.7-6.5c-0.9-1-1.7-2-2.5-3.1c-0.6-0.9-1.1-1.8-1.7-2.7c0,0,0,0,0,0
			c-1.6-2.6-2.9-5.2-4-8.6c-1.4-4.3-1.3-11.5-1.1-13.6c0.3-2,1.8-8.4,2.5-11.2c0.5-1.7,0.5-3.9,0.5-5.9c0-1.4,0-2.7,0.2-3.8
			c0.4-2.9,0.6-8.5,0.4-10.9l0-0.2c-0.2-2.3-0.6-5.7-1.1-7.6c-0.3-0.9-0.5-3.1-0.8-4.9c-0.2-1.4-0.3-2.7-0.5-3.5
			c-0.3-1.3-0.2-4.5-0.1-6.8l0-1.2c0-0.5,0.1-1,0.1-1.6c2.2,3.1,5.5,3.7,8.5,3.7c0.3,0,0.6,0,0.8,0c4.9-0.2,8.3-0.7,10.3-5.9
			c0.3,1.1,0.5,2,0.5,2.5c0.2,2,0,3.9,0,3.9c0,0.1,0,0.2,0,0.2c0,2.1,0.3,14,1,17.5c0.1,0.5,0.2,0.9,0.3,1.4c0.5,2.9,1.1,6.5,4,12.4
			c3.2,6.6,7.8,15,7.9,15.1c0.6,1.1,1.9,1.5,3,0.9c1.1-0.6,1.5-1.9,0.9-3c0-0.1-2.8-5.1-5.5-10.4c2.3-0.5,5.5-1.5,6.9-3.2
			c0.8-0.9,0.7-2.3-0.2-3.1c-0.9-0.8-2.3-0.7-3.1,0.2c-0.6,0.7-3.3,1.5-5.6,2c-0.1-0.1-0.2-0.3-0.2-0.5c-2.6-5.3-3.1-8.5-3.6-11.2
			c-0.1-0.5-0.2-1-0.3-1.5c-0.3-1.4-0.5-4.7-0.6-8.1c0.3,0,0.6,0.1,0.8,0.1c0.6,0,1.2-0.1,1.8-0.3c0.2-0.1,0.5-0.1,0.8-0.2
			c1.2-0.2,2-1.4,1.8-2.6c-0.2-1.2-1.4-2-2.6-1.8c-0.5,0.1-0.8,0.2-1.2,0.3c-0.5,0.1-0.7,0.2-1.6-0.1c-0.1-1.7-0.1-3-0.1-3.8
			c0-0.5,0.2-2.5,0-4.7c-0.1-1.4-0.9-4.1-1.9-6.9c3.6-2,7.3-4,10.9-6c3.7,3.5,8.8,13.7,12.1,20.1c2.2,4.4,4.1,8.1,5.5,10.1
			c1.9,2.7,3.6,6.6,5.2,10.5c1.7,4,3.2,7.7,5.1,10c2.9,3.6,2.9,3.6,3,8.2c0.1,4.2-0.5,11.6-1.9,22c-1.2,9.1-2.2,29.5-2.2,30.2
			c-0.1,1.2,0.9,2.3,2.1,2.3c0,0,0.1,0,0.1,0c1.2,0,2.1-0.9,2.2-2.1c0-0.2,1-21,2.2-29.9c1.4-10.6,2-18.3,1.9-22.7
			c-0.1-5.2-0.3-6.3-4-10.9c-1.5-1.8-2.9-5.3-4.4-8.9c-1.7-4-3.4-8.2-5.6-11.3c-1.2-1.7-3.1-5.5-5.1-9.5
			c-5.1-10.2-8.1-17.3-11.8-20.5c10.1-5.6,19.1-10.5,21-11.3c1.2-0.5,2.8-1.2,4.6-2c13.3-5.6,14.6-6.4,15-8
			C154.8,62.4,154.6,61.5,154.1,61z M61.4,97.9c0.3-0.4,0.7-0.7,1.3-1.1c3,4.9,6.4,9.7,8.5,9.9c0.1,0,0.2,0,0.3,0c0,0,0,0,0.1,0
			c0,1.4,0.1,2.6,0.3,3.5c0.1,0.7,0.3,1.9,0.5,3.2c0.2,1.5,0.4,3,0.6,4.2c-0.1,0.2-0.3,0.3-0.4,0.5c0,0.1-2.9,5.5-5.6,8.5
			c-1.7,1.9-6.9,1.9-8.3,1.3c0-0.1,0-0.3,0-0.5c0.5,0.1,0.9,0.2,1.4,0.2c0,0,0,0,0.1,0c2.4,0,4.2-2.2,4.4-5.3
			c0-0.1,0.4-6.8-0.8-10.7c-0.8-2.5-2.7-4.1-4.1-4.8C60.3,102.6,61,98.7,61.4,97.9z M69.3,169.3c0.6,0,1.3-0.1,1.8-0.2
			c0.2,1.1,0.5,2.3,0.8,3.3c0.8,2.4,1.7,4.5,2.7,6.4c-7.3-0.2-13.7-4.5-16.3-7.6c-0.2-0.3-0.4-0.5-0.6-0.8c-1.5-2-2.4-3.8-2.9-5.1
			c0.9,0.4,1.6,0.7,1.9,0.8C58.9,167,64.7,169.3,69.3,169.3z M59.6,162.5c0.1-0.1,0.4-0.3,0.8-0.4c1-0.3,3.5-0.3,10.2,1
			c0,0.6,0,1.1,0.1,1.7C68.9,165.3,64.2,164.3,59.6,162.5z M70.8,131.3c-0.4-0.5-0.9-0.7-1.5-0.7c0.3-0.3,0.7-0.5,0.9-0.8
			c1.4-1.5,2.7-3.5,3.8-5.3c0.1,0.5,0.1,1.1,0.2,1.5l0,0.2c0.1,1.2,0.1,3.9,0,6.3c-0.7,0.6-1.3,1.2-1.3,1.3c0,0,0,0,0,0
			C72.4,133.1,71.7,132.4,70.8,131.3z M58.9,112.3c0-0.1,0-0.2,0-0.3c0.2,0.3,0.4,0.7,0.6,1.1c0.8,2.4,0.7,7.2,0.6,9
			c0,0.5-0.2,0.9-0.3,1.2c-0.3-0.1-0.8-0.2-1.1-0.4c0,0-0.1,0-0.1,0C58.6,119.6,58.8,115.5,58.9,112.3z M52.3,158.6
			c-0.8-1-0.3-3.3,0.1-5.2c0.1-0.5,0.2-0.9,0.3-1.4c0.4-2.5,0.5-4.5,0.5-6.5l0-0.7c0-0.3,0-0.7,0-1.2c0-8.3,0.9-10.9,1.7-11.7
			c0.3-0.2,0.5-0.5,0.8-0.7c0.5,0.4,1.2,0.8,2.3,1.1c1,0.3,2.2,0.4,3.6,0.4c1.9,0,3.9-0.3,5.7-1c-0.4,0.8-0.3,1.7,0.3,2.4
			c1.1,1.2,2.3,2.6,2.9,3.3c0,1.6-0.2,6.1-0.7,7.9c-0.5,1.6-1.2,3.2-1.7,4c-1.1-0.6-2.2-1.1-3.1-1.7c-1-0.7-2.4-0.4-3.1,0.6
			c-0.7,1-0.4,2.4,0.6,3.1c1.2,0.8,2.4,1.4,3.7,2c2,1,3.9,2,4.7,3.3c0,0,0,0.1,0,0.1c-0.1,0.4-0.1,1-0.1,1.7
			c-4.3-0.8-8.9-1.5-11.4-0.8c-1.9,0.6-3,1.7-3.6,2.9C54.1,160.1,52.8,159.3,52.3,158.6z M75.1,183.3c0.7,0,1.4,0,2.1-0.1
			c0.3,0.5,0.6,1,1,1.5c0.7,1.1,1.4,2,2.2,2.8c-0.6,0.3-1.2,0.7-1.9,1.1c-2.5,1.4-7.6,4.3-8.9,4.4c-1.5,0-4.2-2.5-6.8-4.9l-1.2-1.1
			c-1.3-1.2-2.7-2.2-3.9-3c-2.6-1.8-3.9-2.8-4.2-4.7c-0.3-1.8,0.8-3.3,2.1-4.7C59.1,178.5,66.5,183.3,75.1,183.3z M91.8,95.8
			C91.8,95.8,91.8,95.8,91.8,95.8c-1,2.8-1.9,3.1-6.4,3.2c-3.9,0.1-5.5-0.8-6.5-3.6C78.4,94,78.5,90,79,89.1
			c0.3-0.6,1.6-2.4,5.1-2.5c0.8,0,1.5-0.1,2.1-0.1c0.6,0,1.1-0.1,1.5-0.1c1.4,0,2.2,0.4,3.5,2.3C93.2,91.4,92.7,93.4,91.8,95.8z
			 M138,67c-1.8,0.8-3.5,1.5-4.7,2c-2.3,1-12.7,6.7-24.7,13.4c-3.2,1.8-7.7,4.2-11.2,6.2c-0.3-0.7-0.6-1.4-0.9-2c0,0-1-1.9-2.8-3.9
			c-1.8-2-5.9-1.8-9-1.5l-0.2,0c-2.6,0.3-9.9,1-11,7.3c-1,6.2-1.5,7.4-1.7,12.8l0,0.7c-2.3-2.6-8.1-11.9-11.1-18.1
			c-2.2-4.4-10.1-14-15.9-21.1c-1.6-2-3.3-4-4.2-5.1c1.1-1.4,4.5-4.5,6.7-6c7.1,6.7,17.4,9.2,26.8,4.2c3.5,5.9,10.3,8.2,16.7,9.3
			c5.2,0.9,14.2,3,18.6-1c6.4,0.5,11.5,2.2,17.7-0.5c5-2.2,9.3-6,11.6-11c0.2-0.4,0.3-0.8,0.5-1.2c3.3,3.5,7.9,8.4,9.9,10.7
			C146.4,63.5,141.1,65.7,138,67z"/>
		<path class="st1" d="M92.6,114.8c-0.3,0-7.9-0.1-11,0c-1.2,0.1-2.2,1.1-2.1,2.3c0.1,1.2,1,2.1,2.2,2.1c0,0,0.1,0,0.1,0
			c3-0.1,10.7,0,10.7,0c1.3,0,2.2-0.9,2.2-2.2C94.8,115.8,93.8,114.8,92.6,114.8z"/>
		<path class="st1" d="M89.9,120.5c0,0-1.7,0.4-3.6,0.3c-1.2-0.1-2.2,0.9-2.3,2.1c0,1.2,0.9,2.2,2.1,2.3c0.2,0,0.4,0,0.6,0
			c2.2,0,4-0.4,4.1-0.4c1.2-0.3,1.9-1.5,1.7-2.6C92.2,121,91.1,120.3,89.9,120.5z"/>
	</g>
	<path class="st2" d="M91.8,95.8C91.8,95.8,91.8,95.8,91.8,95.8c-1,2.8-1.9,3.1-6.4,3.2c-3.9,0.1-5.5-0.8-6.5-3.6
		C78.4,94,78.5,90,79,89.1c0.3-0.6,1.6-2.4,5.1-2.5c0.8,0,1.5-0.1,2.1-0.1c0.6,0,1.1-0.1,1.5-0.1c1.4,0,2.2,0.4,3.5,2.3
		C93.2,91.4,92.7,93.4,91.8,95.8z"/>
	<path class="st2" d="M59.5,113.1c0.8,2.4,0.7,7.2,0.6,9c0,0.5-0.2,0.9-0.3,1.2c-0.3-0.1-0.8-0.2-1.1-0.4c0,0-0.1,0-0.1,0
		c0-3.3,0.2-7.4,0.3-10.5c0-0.1,0-0.2,0-0.3C59.1,112.3,59.3,112.6,59.5,113.1z"/>
	<path class="st2" d="M70.3,163.2c0,0.6,0,1.1,0.1,1.7c-1.7,0.5-6.4-0.5-11-2.3c0.1-0.1,0.4-0.3,0.8-0.4
		C61.1,161.9,63.6,161.9,70.3,163.2z"/>
	<path class="st16" d="M93,14.2l-9.4-4.6L66.5,8.1l-8.7,4.7l-1.8,4.3l-13.8,5.5l-3.4,8.8l3.6,10.4l8.2,9.2l12.3,4.9l11.5-3.1
		l5.4,4.4l14,6.1l15-1.9l13.7,1.1l13.3-9.9l3-12.8l-4.6-8.1c0,0-0.9-0.7-3.8-2.6s-2.9-4.8-2.9-4.8l-4.4-9.4l-16.1-5.8l-10.4,2.1
		L93,14.2z"/>
</g>
</svg>
